<svg xmlns="http://www.w3.org/2000/svg" width="600" height="600" viewBox="0 0 158.74999 158.75001"><g transform="translate(0 -138.25)"><rect width="158.75" height="158.75" y="138.25" rx="26.46" ry="26.46" fill="#333"/><path d="M80.63 151.87c-33.27 0-60.23 21.8-60.23 48.7 0 7.67 2.24 15.24 6.55 22.08l-9.06 28.08s15.9-6.2 29.1-8.6c8.1 2 22.2 7.8 33.6 7.13 14.73-.85 31.3-5.13 42.6-14.26 11.3-9.13 17.6-21.52 17.6-34.43 0-12.92-6.35-25.3-17.65-34.44-11.3-9.13-26.6-14.26-42.6-14.26z" fill="#fff"/><g fill="#333" transform="translate(-1.19 4.17)"><path d="M81.2 161.98h-1.97c-10.77.05-19.34 8.8-19.2 19.6l.23 19.42c.6-.24 1.25-.37 1.9-.37h4.6l-.14-12.47c0-.5.02-.98.06-1.46l-.06-5.14c-.1-7.34 5.73-13.28 13.04-13.3l1.33-.02c7.3-.03 13.2 5.85 13.3 13.2l.14 13.17h-.08l.06 6.1h5.2c.5 0 .94.07 1.4.2l-.24-19.43c-.14-10.8-8.9-19.46-19.7-19.4z"/><rect width="55.94" height="37.83" x="52.6" y="194.45" rx="8.39" ry="9.65"/></g><g font-size="3.88" font-family="Sans" letter-spacing="0" word-spacing="0" text-anchor="middle" stroke-width=".26"><text style="line-height:6.61458302px;text-align:center" x="53.48" y="266.53" fill="#b2c7fc" transform="translate(8.33 -91.38) scale(1.20075)"><tspan x="53.48" y="266.53" font-size="25.4">x</tspan></text><text style="line-height:6.61458349px;text-align:center" x="65.82" y="266.53" fill="#f3f1ff" transform="translate(8.33 -91.38) scale(1.20075)"><tspan x="65.82" y="266.53" font-size="25.4">F</tspan></text></g><circle cx="38.62" cy="271.58" r="11.81" fill="#00b500"/><circle cx="80.47" cy="271.58" r="11.81" fill="#00b500"/><circle cx="122.32" cy="271.58" r="11.81" fill="#00b500"/></g></svg>